# Made in Blockbench 4.11.1
mtllib tutorial model.mtl

o RifleMag
v 0.0625 -0.0625 -0.34375
v 0.0625 -0.0625 -0.53125
v 0.0625 -0.3125 -0.46875
v 0.0625 -0.3125 -0.65625
v -0.0625 -0.0625 -0.34375
v -0.0625 -0.0625 -0.53125
v -0.0625 -0.3125 -0.46875
v -0.0625 -0.3125 -0.65625
vt 0.046875 0.984375
vt 0.015625 0.984375
vt 0.015625 0.953125
vt 0.046875 0.953125
vt 0.109375 0.984375
vt 0.078125 0.984375
vt 0.078125 0.953125
vt 0.109375 0.953125
vt 0.171875 0.984375
vt 0.140625 0.984375
vt 0.140625 0.953125
vt 0.171875 0.953125
vt 0.234375 0.984375
vt 0.203125 0.984375
vt 0.203125 0.953125
vt 0.234375 0.953125
vt 0.296875 0.984375
vt 0.265625 0.984375
vt 0.265625 0.953125
vt 0.296875 0.953125
vt 0.359375 0.984375
vt 0.328125 0.984375
vt 0.328125 0.953125
vt 0.359375 0.953125
vn 1 0 0
vn -1 0 0
vn 0 1 0
vn 0 -1 0
vn 0 -0.44721359549995804 0.8944271909999161
vn 0 0.44721359549995804 -0.8944271909999161
usemtl m_d75e4d51-92e3-1691-74dd-f94d9788526e
f 2/1/1 1/2/1 3/3/1 4/4/1
f 7/5/2 5/6/2 6/7/2 8/8/2
f 5/9/3 1/10/3 2/11/3 6/12/3
f 4/13/4 3/14/4 7/15/4 8/16/4
f 3/17/5 1/18/5 5/19/5 7/20/5
f 6/21/6 2/22/6 4/23/6 8/24/6
o Stock
v 0.0625 0.03125 0.875
v 0.0625 0.03125 0.375
v 0.0625 -0.03125 0.875
v 0.0625 -0.03125 0.375
v -0.0625 0.03125 0.875
v -0.0625 0.03125 0.375
v -0.0625 -0.03125 0.875
v -0.0625 -0.03125 0.375
v 0.0625 0.15625 0.875
v 0.0625 0.15625 0.375
v 0.0625 0.09375 0.875
v 0.0625 0.09375 0.375
v -0.0625 0.15625 0.875
v -0.0625 0.15625 0.375
v -0.0625 0.09375 0.875
v -0.0625 0.09375 0.375
v 0.125 0.15625 1
v 0.125 0.15625 0.875
v 0.125 -0.15625 1
v 0.125 -0.15625 0.875
v -0.125 0.15625 1
v -0.125 0.15625 0.875
v -0.125 -0.15625 1
v -0.125 -0.15625 0.875
vt 0.046875 0.984375
vt 0.015625 0.984375
vt 0.015625 0.953125
vt 0.046875 0.953125
vt 0.109375 0.984375
vt 0.078125 0.984375
vt 0.078125 0.953125
vt 0.109375 0.953125
vt 0.171875 0.984375
vt 0.140625 0.984375
vt 0.140625 0.953125
vt 0.171875 0.953125
vt 0.234375 0.984375
vt 0.203125 0.984375
vt 0.203125 0.953125
vt 0.234375 0.953125
vt 0.296875 0.984375
vt 0.265625 0.984375
vt 0.265625 0.953125
vt 0.296875 0.953125
vt 0.359375 0.984375
vt 0.328125 0.984375
vt 0.328125 0.953125
vt 0.359375 0.953125
vt 0.421875 0.984375
vt 0.390625 0.984375
vt 0.390625 0.953125
vt 0.421875 0.953125
vt 0.484375 0.984375
vt 0.453125 0.984375
vt 0.453125 0.953125
vt 0.484375 0.953125
vt 0.546875 0.984375
vt 0.515625 0.984375
vt 0.515625 0.953125
vt 0.546875 0.953125
vt 0.609375 0.984375
vt 0.578125 0.984375
vt 0.578125 0.953125
vt 0.609375 0.953125
vt 0.671875 0.984375
vt 0.640625 0.984375
vt 0.640625 0.953125
vt 0.671875 0.953125
vt 0.734375 0.984375
vt 0.703125 0.984375
vt 0.703125 0.953125
vt 0.734375 0.953125
vt 0.796875 0.984375
vt 0.765625 0.984375
vt 0.765625 0.953125
vt 0.796875 0.953125
vt 0.859375 0.984375
vt 0.828125 0.984375
vt 0.828125 0.953125
vt 0.859375 0.953125
vt 0.921875 0.984375
vt 0.890625 0.984375
vt 0.890625 0.953125
vt 0.921875 0.953125
vt 0.984375 0.984375
vt 0.953125 0.984375
vt 0.953125 0.953125
vt 0.984375 0.953125
vt 0.046875 0.921875
vt 0.015625 0.921875
vt 0.015625 0.890625
vt 0.046875 0.890625
vt 0.109375 0.921875
vt 0.078125 0.921875
vt 0.078125 0.890625
vt 0.109375 0.890625
vn 1 0 0
vn -1 0 0
vn 0 1 0
vn 0 -1 0
vn 0 0 1
vn 0 0 -1
vn 1 0 0
vn -1 0 0
vn 0 1 0
vn 0 -1 0
vn 0 0 1
vn 0 0 -1
vn 1 0 0
vn -1 0 0
vn 0 1 0
vn 0 -1 0
vn 0 0 1
vn 0 0 -1
usemtl m_2426c51d-9b9a-ad4d-2673-8895a4cecfeb
f 10/25/7 9/26/7 11/27/7 12/28/7
f 15/29/8 13/30/8 14/31/8 16/32/8
f 13/33/9 9/34/9 10/35/9 14/36/9
f 12/37/10 11/38/10 15/39/10 16/40/10
f 11/41/11 9/42/11 13/43/11 15/44/11
f 14/45/12 10/46/12 12/47/12 16/48/12
f 18/49/13 17/50/13 19/51/13 20/52/13
f 23/53/14 21/54/14 22/55/14 24/56/14
f 21/57/15 17/58/15 18/59/15 22/60/15
f 20/61/16 19/62/16 23/63/16 24/64/16
f 19/65/17 17/66/17 21/67/17 23/68/17
f 22/69/18 18/70/18 20/71/18 24/72/18
f 26/73/19 25/74/19 27/75/19 28/76/19
f 31/77/20 29/78/20 30/79/20 32/80/20
f 29/81/21 25/82/21 26/83/21 30/84/21
f 28/85/22 27/86/22 31/87/22 32/88/22
f 27/89/23 25/90/23 29/91/23 31/92/23
f 30/93/24 26/94/24 28/95/24 32/96/24
o Base Barrel
v 0.0625 -0.0625 0.28125
v 0.0625 -0.0625 0.125
v 0.0625 -0.3125 0.34375
v 0.0625 -0.3125 0.15625
v -0.0625 -0.0625 0.28125
v -0.0625 -0.0625 0.125
v -0.0625 -0.3125 0.34375
v -0.0625 -0.3125 0.15625
v 0.125 0.1875 0.375
v 0.125 0.1875 -0.625
v 0.125 -0.0625 0.375
v 0.125 -0.0625 -0.625
v -0.125 0.1875 0.375
v -0.125 0.1875 -0.625
v -0.125 -0.0625 0.375
v -0.125 -0.0625 -0.625
v 0.0625 0.1875 -0.625
v 0.0625 0.1875 -1.25
v 0.0625 0.0625 -0.625
v 0.0625 0.0625 -1.25
v -0.0625 0.1875 -0.625
v -0.0625 0.1875 -1.25
v -0.0625 0.0625 -0.625
v -0.0625 0.0625 -1.25
v 0.0625 0.1875 -1.25
v 0.0625 0.1875 -0.625
v -0.0625 0.1875 -0.625
v -0.0625 0.1875 -1.25
v 0.125 0.1875 0.17500000000000004
v -0.125 0.1875 0.17500000000000004
v 0.125 0.1875 -0.02499999999999991
v -0.125 0.1875 0.10000000000000009
v 0.125 0.1875 -0.22499999999999992
v -0.125 0.1875 -0.34999999999999987
v 0.125 0.1875 -0.42499999999999993
v -0.125 0.1875 -0.42499999999999993
v -0.125 -0.0625 0.17500000000000004
v -0.125 -0.0625 0.10000000000000009
v -0.125 -0.0625 -0.34999999999999987
v -0.125 -0.0625 -0.42499999999999993
v 0.125 -0.0625 0.17500000000000004
v 0.125 -0.0625 -0.02499999999999991
v 0.125 -0.0625 -0.22499999999999992
v 0.125 -0.0625 -0.42499999999999993
v -0.1875 0.10416666666666674 -0.34999999999999987
v -0.1875 0.10416666666666674 0.10000000000000009
v -0.1875 0.02083333333333337 -0.34999999999999987
v -0.1875 0.02083333333333337 0.10000000000000009
v -0.125 0.10416666666666674 0.17500000000000004
v -0.125 0.02083333333333337 0.17500000000000004
v -0.125 0.10416666666666674 0.375
v -0.125 0.02083333333333337 0.375
v 0.125 0.10416666666666674 0.375
v 0.125 0.02083333333333337 0.375
v 0.125 0.10416666666666674 0.17500000000000004
v 0.125 0.02083333333333337 0.17500000000000004
v 0.125 0.10416666666666674 -0.02499999999999991
v 0.125 0.02083333333333337 -0.02499999999999991
v 0.125 0.10416666666666674 -0.22499999999999992
v 0.125 0.02083333333333337 -0.22499999999999992
v 0.125 0.10416666666666674 -0.42499999999999993
v 0.125 0.02083333333333337 -0.42499999999999993
v 0.125 0.10416666666666674 -0.625
v 0.125 0.02083333333333337 -0.625
v -0.125 0.10416666666666674 -0.625
v -0.125 0.02083333333333337 -0.625
v -0.125 0.10416666666666674 -0.42499999999999993
v -0.125 0.02083333333333337 -0.42499999999999993
v -0.125 0.14583541666666677 -0.34999999999999987
v -0.125 0.14583541666666677 0.10000000000000009
v -0.125 0.14583541666666677 0.17500000000000004
v -0.125 0.14583541666666677 0.375
v 0.125 0.14583541666666677 0.375
v 0.125 0.14583541666666677 0.17500000000000004
v 0.125 0.14583541666666677 -0.02499999999999991
v 0.125 0.14583541666666677 -0.22499999999999992
v 0.125 0.14583541666666677 -0.42499999999999993
v 0.125 0.14583541666666677 -0.625
v -0.125 0.14583541666666677 -0.625
v -0.125 0.14583541666666677 -0.42499999999999993
v -0.125 -0.020833333333333315 0.10000000000000009
v -0.125 -0.020833333333333315 -0.34999999999999987
v -0.125 -0.020833333333333315 -0.42499999999999993
v -0.125 -0.020833333333333315 -0.625
v 0.125 -0.020833333333333315 -0.625
v 0.125 -0.020833333333333315 -0.42499999999999993
v 0.125 -0.020833333333333315 -0.22499999999999992
v 0.125 -0.020833333333333315 -0.02499999999999991
v 0.125 -0.020833333333333315 0.17500000000000004
v 0.125 -0.020833333333333315 0.375
v -0.125 -0.020833333333333315 0.375
v -0.125 -0.020833333333333315 0.17500000000000004
v 0.0625 -0.3125 0.21875
v 0.0625 -0.0625 0.21875
v 0.0625 -0.3125 0.28125
v -0.0625 -0.3125 0.21875
v -0.0625 -0.3125 0.28125
v -0.0625 -0.0625 0.21875
vt 0.015625 0.953125
vt 0.026041666666666668 0.953125
vt 0.026041666666666668 0.984375
vt 0.015625 0.984375
vt 0.078125 0.984375
vt 0.078125 0.9739583333333334
vt 0.109375 0.9739583333333334
vt 0.109375 0.984375
vt 0.140625 0.984375
vt 0.140625 0.9739583333333334
vt 0.171875 0.9739583333333334
vt 0.171875 0.984375
vt 0.203125 0.953125
vt 0.21354166666666669 0.953125
vt 0.21354166666666669 0.984375
vt 0.203125 0.984375
vt 0.296875 0.984375
vt 0.265625 0.984375
vt 0.265625 0.953125
vt 0.296875 0.953125
vt 0.359375 0.984375
vt 0.328125 0.984375
vt 0.328125 0.953125
vt 0.359375 0.953125
vt 0.415625 0.9635416666666666
vt 0.415625 0.9583333333333334
vt 0.421875 0.9583333333333334
vt 0.421875 0.9635416666666666
vt 0.47395833333333337 0.953125
vt 0.4791666666666667 0.953125
vt 0.4791666666666667 0.984375
vt 0.47395833333333337 0.984375
vt 0.515625 0.9635416666666666
vt 0.515625 0.9583333333333334
vt 0.546875 0.9583333333333334
vt 0.546875 0.9635416666666666
vt 0.609375 0.984375
vt 0.578125 0.984375
vt 0.578125 0.953125
vt 0.609375 0.953125
vt 0.859375 0.984375
vt 0.828125 0.984375
vt 0.828125 0.953125
vt 0.859375 0.953125
vt 0.921875 0.984375
vt 0.890625 0.984375
vt 0.890625 0.953125
vt 0.921875 0.953125
vt 0.984375 0.984375
vt 0.953125 0.984375
vt 0.953125 0.953125
vt 0.984375 0.953125
vt 0.046875 0.921875
vt 0.015625 0.921875
vt 0.015625 0.890625
vt 0.046875 0.890625
vt 0.109375 0.921875
vt 0.078125 0.921875
vt 0.078125 0.890625
vt 0.109375 0.890625
vt 0.171875 0.921875
vt 0.140625 0.921875
vt 0.140625 0.890625
vt 0.171875 0.890625
vt 0.234375 0.921875
vt 0.203125 0.921875
vt 0.203125 0.890625
vt 0.234375 0.890625
vt 0.296875 0.921875
vt 0.265625 0.921875
vt 0.265625 0.890625
vt 0.296875 0.890625
vt 0.359375 0.921875
vt 0.328125 0.921875
vt 0.328125 0.890625
vt 0.359375 0.890625
vt 0.6614583333333333 0.953125
vt 0.6666666666666666 0.953125
vt 0.6666666666666666 0.959375
vt 0.6614583333333333 0.959375
vt 0.734375 0.953125
vt 0.734375 0.959375
vt 0.703125 0.959375
vt 0.703125 0.953125
vt 0.796875 0.984375
vt 0.7906249999999999 0.984375
vt 0.7906249999999999 0.953125
vt 0.796875 0.953125
vt 0.703125 0.984375
vt 0.703125 0.978125
vt 0.734375 0.978125
vt 0.734375 0.984375
vt 0.703125 0.978125
vt 0.703125 0.971875
vt 0.734375 0.971875
vt 0.734375 0.978125
vt 0.703125 0.971875
vt 0.703125 0.965625
vt 0.734375 0.965625
vt 0.734375 0.971875
vt 0.703125 0.965625
vt 0.703125 0.959375
vt 0.734375 0.959375
vt 0.734375 0.965625
vt 0.6614583333333333 0.978125
vt 0.6666666666666666 0.978125
vt 0.6666666666666666 0.984375
vt 0.6614583333333333 0.984375
vt 0.6614583333333333 0.971875
vt 0.6666666666666666 0.971875
vt 0.6666666666666666 0.978125
vt 0.6614583333333333 0.978125
vt 0.6614583333333333 0.965625
vt 0.6666666666666666 0.965625
vt 0.6666666666666666 0.971875
vt 0.6614583333333333 0.971875
vt 0.6614583333333333 0.959375
vt 0.6666666666666666 0.959375
vt 0.6666666666666666 0.965625
vt 0.6614583333333333 0.965625
vt 0.765625 0.953125
vt 0.771875 0.953125
vt 0.771875 0.984375
vt 0.765625 0.984375
vt 0.771875 0.953125
vt 0.778125 0.953125
vt 0.778125 0.984375
vt 0.771875 0.984375
vt 0.778125 0.953125
vt 0.7843749999999999 0.953125
vt 0.7843749999999999 0.984375
vt 0.778125 0.984375
vt 0.7843749999999999 0.953125
vt 0.7906249999999999 0.953125
vt 0.7906249999999999 0.984375
vt 0.7843749999999999 0.984375
vt 0.390625 0.9635416666666666
vt 0.390625 0.9583333333333334
vt 0.396875 0.9583333333333334
vt 0.396875 0.9635416666666666
vt 0.396875 0.9635416666666666
vt 0.396875 0.9583333333333334
vt 0.40312499999999996 0.9583333333333334
vt 0.40312499999999996 0.9635416666666666
vt 0.40312499999999996 0.9635416666666666
vt 0.40312499999999996 0.9583333333333334
vt 0.409375 0.9583333333333334
vt 0.409375 0.9635416666666666
vt 0.409375 0.9635416666666666
vt 0.409375 0.9583333333333334
vt 0.415625 0.9583333333333334
vt 0.415625 0.9635416666666666
vt 0.6510416666666666 0.971875
vt 0.6458330729166667 0.971875
vt 0.6458330729166667 0.965625
vt 0.6510416666666666 0.965625
vt 0.6510416666666666 0.965625
vt 0.6614583333333333 0.965625
vt 0.6614583333333333 0.971875
vt 0.6510416666666666 0.971875
vt 0.6510416666666666 0.978125
vt 0.6458330729166667 0.978125
vt 0.6458330729166667 0.971875
vt 0.6510416666666666 0.971875
vt 0.6510416666666666 0.971875
vt 0.6614583333333333 0.971875
vt 0.6614583333333333 0.978125
vt 0.6510416666666666 0.978125
vt 0.6510416666666666 0.984375
vt 0.6458330729166667 0.984375
vt 0.6458330729166667 0.978125
vt 0.6510416666666666 0.978125
vt 0.6510416666666666 0.978125
vt 0.6614583333333333 0.978125
vt 0.6614583333333333 0.984375
vt 0.6510416666666666 0.984375
vt 0.4635416666666667 0.984375
vt 0.4583330729166667 0.984375
vt 0.4583330729166667 0.953125
vt 0.4635416666666667 0.953125
vt 0.4635416666666667 0.953125
vt 0.47395833333333337 0.953125
vt 0.47395833333333337 0.984375
vt 0.4635416666666667 0.984375
vt 0.396875 0.9739583333333334
vt 0.396875 0.9791669270833333
vt 0.390625 0.9791669270833333
vt 0.390625 0.9739583333333334
vt 0.390625 0.9739583333333334
vt 0.390625 0.9635416666666666
vt 0.396875 0.9635416666666666
vt 0.396875 0.9739583333333334
vt 0.40312499999999996 0.9739583333333334
vt 0.40312499999999996 0.9791669270833333
vt 0.396875 0.9791669270833333
vt 0.396875 0.9739583333333334
vt 0.396875 0.9739583333333334
vt 0.396875 0.9635416666666666
vt 0.40312499999999996 0.9635416666666666
vt 0.40312499999999996 0.9739583333333334
vt 0.409375 0.9739583333333334
vt 0.409375 0.9791669270833333
vt 0.40312499999999996 0.9791669270833333
vt 0.40312499999999996 0.9739583333333334
vt 0.40312499999999996 0.9739583333333334
vt 0.40312499999999996 0.9635416666666666
vt 0.409375 0.9635416666666666
vt 0.409375 0.9739583333333334
vt 0.415625 0.9739583333333334
vt 0.415625 0.9791669270833333
vt 0.409375 0.9791669270833333
vt 0.409375 0.9739583333333334
vt 0.409375 0.9739583333333334
vt 0.409375 0.9635416666666666
vt 0.415625 0.9635416666666666
vt 0.415625 0.9739583333333334
vt 0.421875 0.9739583333333334
vt 0.421875 0.9791669270833333
vt 0.415625 0.9791669270833333
vt 0.415625 0.9739583333333334
vt 0.415625 0.9739583333333334
vt 0.415625 0.9635416666666666
vt 0.421875 0.9635416666666666
vt 0.421875 0.9739583333333334
vt 0.546875 0.9739583333333334
vt 0.546875 0.9791669270833333
vt 0.515625 0.9791669270833333
vt 0.515625 0.9739583333333334
vt 0.515625 0.9739583333333334
vt 0.515625 0.9635416666666666
vt 0.546875 0.9635416666666666
vt 0.546875 0.9739583333333334
vt 0.6510416666666666 0.959375
vt 0.6458330729166667 0.959375
vt 0.6458330729166667 0.953125
vt 0.6510416666666666 0.953125
vt 0.6510416666666666 0.953125
vt 0.6614583333333333 0.953125
vt 0.6614583333333333 0.959375
vt 0.6510416666666666 0.959375
vt 0.6510416666666666 0.965625
vt 0.6458330729166667 0.965625
vt 0.6458330729166667 0.959375
vt 0.6510416666666666 0.959375
vt 0.6510416666666666 0.959375
vt 0.6614583333333333 0.959375
vt 0.6614583333333333 0.965625
vt 0.6510416666666666 0.965625
vt 0.640625 0.965625
vt 0.6458330729166667 0.965625
vt 0.6458330729166667 0.971875
vt 0.640625 0.971875
vt 0.640625 0.971875
vt 0.6458330729166667 0.971875
vt 0.6458330729166667 0.978125
vt 0.640625 0.978125
vt 0.640625 0.978125
vt 0.6458330729166667 0.978125
vt 0.6458330729166667 0.984375
vt 0.640625 0.984375
vt 0.453125 0.953125
vt 0.4583330729166667 0.953125
vt 0.4583330729166667 0.984375
vt 0.453125 0.984375
vt 0.390625 0.984375
vt 0.390625 0.9791669270833333
vt 0.396875 0.9791669270833333
vt 0.396875 0.984375
vt 0.396875 0.984375
vt 0.396875 0.9791669270833333
vt 0.40312499999999996 0.9791669270833333
vt 0.40312499999999996 0.984375
vt 0.40312499999999996 0.984375
vt 0.40312499999999996 0.9791669270833333
vt 0.409375 0.9791669270833333
vt 0.409375 0.984375
vt 0.409375 0.984375
vt 0.409375 0.9791669270833333
vt 0.415625 0.9791669270833333
vt 0.415625 0.984375
vt 0.415625 0.984375
vt 0.415625 0.9791669270833333
vt 0.421875 0.9791669270833333
vt 0.421875 0.984375
vt 0.515625 0.984375
vt 0.515625 0.9791669270833333
vt 0.546875 0.9791669270833333
vt 0.546875 0.984375
vt 0.640625 0.953125
vt 0.6458330729166667 0.953125
vt 0.6458330729166667 0.959375
vt 0.640625 0.959375
vt 0.640625 0.959375
vt 0.6458330729166667 0.959375
vt 0.6458330729166667 0.965625
vt 0.640625 0.965625
vt 0.671875 0.971875
vt 0.6666666666666666 0.971875
vt 0.6666666666666666 0.965625
vt 0.671875 0.965625
vt 0.671875 0.965625
vt 0.6666666666666666 0.965625
vt 0.6666666666666666 0.959375
vt 0.671875 0.959375
vt 0.671875 0.959375
vt 0.6666666666666666 0.959375
vt 0.6666666666666666 0.953125
vt 0.671875 0.953125
vt 0.546875 0.953125
vt 0.546875 0.9583333333333334
vt 0.515625 0.9583333333333334
vt 0.515625 0.953125
vt 0.421875 0.953125
vt 0.421875 0.9583333333333334
vt 0.415625 0.9583333333333334
vt 0.415625 0.953125
vt 0.415625 0.953125
vt 0.415625 0.9583333333333334
vt 0.409375 0.9583333333333334
vt 0.409375 0.953125
vt 0.409375 0.953125
vt 0.409375 0.9583333333333334
vt 0.40312499999999996 0.9583333333333334
vt 0.40312499999999996 0.953125
vt 0.40312499999999996 0.953125
vt 0.40312499999999996 0.9583333333333334
vt 0.396875 0.9583333333333334
vt 0.396875 0.953125
vt 0.396875 0.953125
vt 0.396875 0.9583333333333334
vt 0.390625 0.9583333333333334
vt 0.390625 0.953125
vt 0.484375 0.984375
vt 0.4791666666666667 0.984375
vt 0.4791666666666667 0.953125
vt 0.484375 0.953125
vt 0.671875 0.984375
vt 0.6666666666666666 0.984375
vt 0.6666666666666666 0.978125
vt 0.671875 0.978125
vt 0.671875 0.978125
vt 0.6666666666666666 0.978125
vt 0.6666666666666666 0.971875
vt 0.671875 0.971875
vt 0.046875 0.984375
vt 0.036458333333333336 0.953125
vt 0.046875 0.953125
vt 0.036458333333333336 0.984375
vt 0.026041666666666668 0.984375
vt 0.026041666666666668 0.953125
vt 0.036458333333333336 0.953125
vt 0.234375 0.984375
vt 0.22395833333333334 0.984375
vt 0.22395833333333334 0.953125
vt 0.234375 0.953125
vt 0.22395833333333334 0.984375
vt 0.21354166666666669 0.984375
vt 0.21354166666666669 0.953125
vt 0.22395833333333334 0.953125
vt 0.109375 0.953125
vt 0.109375 0.9635416666666666
vt 0.078125 0.953125
vt 0.109375 0.9635416666666666
vt 0.109375 0.9739583333333334
vt 0.078125 0.9739583333333334
vt 0.078125 0.9635416666666666
vt 0.171875 0.9635416666666666
vt 0.171875 0.9739583333333334
vt 0.140625 0.9739583333333334
vt 0.140625 0.9635416666666666
vn 1 0 0
vn -1 0 0
vn 0 1 0
vn 0 -1 0
vn 0 0.24253562503633297 0.9701425001453319
vn 0 -0.12403473458920847 -0.9922778767136677
vn 1 0 0
vn 0 0 1
vn 0 0 -1
vn 0 0 0
vn 0 0 0
vn 0 0 0
vn 0 1 0
vn 0 -1 0
vn 0 0 0
vn 1 0 0
vn 0 0 1
vn -1 0 0
vn 0 0 -1
vn -1 0 0
vn 0 1 0
vn 0 -1 0
vn 0 1 0
vn 0 1 0
vn 0 1 0
vn 0 1 0
vn -1 0 0
vn -0.5547001962252294 -0.8320502943378437 0
vn -0.5547001962252294 -0.8320502943378437 0
vn -1 0 0
vn 0 -1 0
vn 0 -1 0
vn 0 -1 0
vn 0 -1 0
vn 1 0 0
vn 1 0 0
vn 1 0 0
vn 1 0 0
vn -0.5547193969427683 0.8320374935394748 0
vn -1 0 0
vn -1 0 0
vn -0.7682212795973757 0 0.64018439966448
vn -1 0 0
vn -1 0 0
vn 0 0 1
vn 0 0 1
vn 1 0 0
vn 1 0 0
vn 1 0 0
vn 1 0 0
vn 1 0 0
vn 1 0 0
vn 1 0 0
vn 1 0 0
vn 1 0 0
vn 1 0 0
vn 0 0 -1
vn 0 0 -1
vn -1 0 0
vn -1 0 0
vn -0.5547193969427683 0.8320374935394748 0
vn -0.7682212795973763 0 -0.6401843996644796
vn -1 0 0
vn -1 0 0
vn -1 0 0
vn 0 0 1
vn 1 0 0
vn 1 0 0
vn 1 0 0
vn 1 0 0
vn 1 0 0
vn 0 0 -1
vn -1 0 0
vn -1 0 0
vn -1 0 0
vn -1 0 0
vn -1 0 0
vn 0 0 -1
vn 1 0 0
vn 1 0 0
vn 1 0 0
vn 1 0 0
vn 1 0 0
vn 0 0 1
vn -1 0 0
vn -1 0 0
vn 1 0 0
vn 1 0 0
vn 0 -1 0
vn 0 -1 0
vn -1 0 0
vn -1 0 0
vn 0 1 0
usemtl m_98594610-326e-9c23-4b13-eece8df0d169
f 35/97/25 127/98/25 126/99/25 33/100/25
f 37/101/26 130/102/26 129/103/26 39/104/26
f 33/105/27 126/106/27 130/107/27 37/108/27
f 39/109/28 129/110/28 127/111/28 35/112/28
f 35/113/29 33/114/29 37/115/29 39/116/29
f 38/117/30 34/118/30 36/119/30 40/120/30
f 94/121/31 118/122/31 117/123/31 96/124/31
f 84/125/32 123/126/32 122/127/32 86/128/32
f 96/129/33 117/130/33 116/131/33 98/132/33
f 53/133/34 58/134/34 59/135/34 49/136/34
f 49/137/35 57/138/35 58/139/35 50/140/35
f 54/141/36 59/142/36 60/143/36 53/144/36
f 53/145/37 49/146/37 50/147/37 54/148/37
f 52/149/38 51/150/38 55/151/38 56/152/38
f 50/153/39 60/154/39 57/155/39 54/156/39
f 52/157/40 57/158/40 58/159/40 51/160/40
f 51/161/41 58/162/41 59/163/41 55/164/41
f 55/165/42 59/166/42 60/167/42 56/168/42
f 56/169/43 60/170/43 57/171/43 52/172/43
f 98/173/44 116/174/44 115/175/44 100/176/44
f 46/177/45 68/178/45 67/179/45 42/180/45
f 44/181/46 76/182/46 72/183/46 48/184/46
f 41/185/47 61/186/47 62/187/47 45/188/47
f 61/189/48 63/190/48 64/191/48 62/192/48
f 63/193/49 65/194/49 66/195/49 64/196/49
f 65/197/50 67/198/50 68/199/50 66/200/50
f 82/201/51 124/202/51 123/203/51 84/204/51
f 80/205/52 113/206/52 124/207/52 82/208/52
f 79/209/53 114/210/53 113/211/53 80/212/53
f 100/213/54 115/214/54 114/215/54 79/216/54
f 47/217/55 69/218/55 73/219/55 43/220/55
f 69/221/56 70/222/56 74/223/56 73/224/56
f 70/225/57 71/226/57 75/227/57 74/228/57
f 71/229/58 72/230/58 76/231/58 75/232/58
f 86/233/59 122/234/59 121/235/59 88/236/59
f 88/237/60 121/238/60 120/239/60 90/240/60
f 90/241/61 120/242/61 119/243/61 92/244/61
f 92/245/62 119/246/62 118/247/62 94/248/62
f 78/249/63 102/250/63 101/251/63 77/252/63
f 77/253/64 79/254/64 80/255/64 78/256/64
f 81/257/65 103/258/65 102/259/65 78/260/65
f 78/261/66 80/262/66 82/263/66 81/264/66
f 83/265/67 104/266/67 103/267/67 81/268/67
f 81/269/68 82/270/68 84/271/68 83/272/68
f 85/273/69 105/274/69 104/275/69 83/276/69
f 83/277/70 84/278/70 86/279/70 85/280/70
f 87/281/71 106/282/71 105/283/71 85/284/71
f 85/285/72 86/286/72 88/287/72 87/288/72
f 89/289/73 107/290/73 106/291/73 87/292/73
f 87/293/74 88/294/74 90/295/74 89/296/74
f 91/297/75 108/298/75 107/299/75 89/300/75
f 89/301/76 90/302/76 92/303/76 91/304/76
f 93/305/77 109/306/77 108/307/77 91/308/77
f 91/309/78 92/310/78 94/311/78 93/312/78
f 95/313/79 110/314/79 109/315/79 93/316/79
f 93/317/80 94/318/80 96/319/80 95/320/80
f 97/321/81 111/322/81 110/323/81 95/324/81
f 95/325/82 96/326/82 98/327/82 97/328/82
f 99/329/83 112/330/83 111/331/83 97/332/83
f 97/333/84 98/334/84 100/335/84 99/336/84
f 77/337/85 101/338/85 112/339/85 99/340/85
f 99/341/86 100/342/86 79/343/86 77/344/86
f 66/345/87 101/346/87 102/347/87 64/348/87
f 64/349/88 102/350/88 103/351/88 62/352/88
f 62/353/89 103/354/89 104/355/89 45/356/89
f 45/357/90 104/358/90 105/359/90 41/360/90
f 41/361/91 105/362/91 106/363/91 61/364/91
f 61/365/92 106/366/92 107/367/92 63/368/92
f 63/369/93 107/370/93 108/371/93 65/372/93
f 65/373/94 108/374/94 109/375/94 67/376/94
f 67/377/95 109/378/95 110/379/95 42/380/95
f 42/381/96 110/382/96 111/383/96 46/384/96
f 46/385/97 111/386/97 112/387/97 68/388/97
f 68/389/98 112/390/98 101/391/98 66/392/98
f 70/393/99 113/394/99 114/395/99 71/396/99
f 71/397/100 114/398/100 115/399/100 72/400/100
f 72/401/101 115/402/101 116/403/101 48/404/101
f 48/405/102 116/406/102 117/407/102 44/408/102
f 44/409/103 117/410/103 118/411/103 76/412/103
f 76/413/104 118/414/104 119/415/104 75/416/104
f 75/417/105 119/418/105 120/419/105 74/420/105
f 74/421/106 120/422/106 121/423/106 73/424/106
f 73/425/107 121/426/107 122/427/107 43/428/107
f 43/429/108 122/430/108 123/431/108 47/432/108
f 47/433/109 123/434/109 124/435/109 69/436/109
f 69/437/110 124/438/110 113/439/110 70/440/110
f 34/441/111 125/442/111 36/443/111
f 34/444/112 126/445/112 127/446/112 125/447/112
f 36/448/113 125/449/113 128/450/113 40/451/113
f 125/452/114 127/453/114 129/454/114 128/455/114
f 40/456/115 128/457/115 38/458/115
f 128/459/116 129/460/116 130/461/116 38/462/116
f 38/463/117 130/464/117 126/465/117 34/466/117