# Made in Blockbench 4.11.1
mtllib test_pistol.mtl

o Base Barrel
v 0.0625 -0.0625 0.28125
v 0.0625 -0.0625 0.125
v 0.0625 -0.3125 0.34375
v 0.0625 -0.3125 0.15625
v -0.0625 -0.0625 0.28125
v -0.0625 -0.0625 0.125
v -0.0625 -0.3125 0.34375
v -0.0625 -0.3125 0.15625
v 0.125 0.1875 0.375
v 0.125 0.1875 -0.625
v 0.125 -0.0625 0.375
v 0.125 -0.0625 -0.625
v -0.125 0.1875 0.375
v -0.125 0.1875 -0.625
v -0.125 -0.0625 0.375
v -0.125 -0.0625 -0.625
v 0.0625 0.1875 -0.625
v 0.0625 0.1875 -1.25
v 0.0625 0.0625 -0.625
v 0.0625 0.0625 -1.25
v -0.0625 0.1875 -0.625
v -0.0625 0.1875 -1.25
v -0.0625 0.0625 -0.625
v -0.0625 0.0625 -1.25
v 0.0625 0.1875 -1.25
v 0.0625 0.1875 -0.625
v -0.0625 0.1875 -0.625
v -0.0625 0.1875 -1.25
v 0.125 0.1875 0.17500000000000004
v -0.125 0.1875 0.17500000000000004
v 0.125 0.1875 -0.02499999999999991
v -0.125 0.1875 0.10000000000000009
v 0.125 0.1875 -0.22499999999999992
v -0.125 0.1875 -0.34999999999999987
v 0.125 0.1875 -0.42499999999999993
v -0.125 0.1875 -0.42499999999999993
v -0.125 -0.0625 0.17500000000000004
v -0.125 -0.0625 0.10000000000000009
v -0.125 -0.0625 -0.34999999999999987
v -0.125 -0.0625 -0.42499999999999993
v 0.125 -0.0625 0.17500000000000004
v 0.125 -0.0625 -0.02499999999999991
v 0.125 -0.0625 -0.22499999999999992
v 0.125 -0.0625 -0.42499999999999993
v -0.1875 0.10416666666666674 -0.34999999999999987
v -0.1875 0.10416666666666674 0.10000000000000009
v -0.1875 0.02083333333333337 -0.34999999999999987
v -0.1875 0.02083333333333337 0.10000000000000009
v -0.125 0.10416666666666674 0.17500000000000004
v -0.125 0.02083333333333337 0.17500000000000004
v -0.125 0.10416666666666674 0.375
v -0.125 0.02083333333333337 0.375
v 0.125 0.10416666666666674 0.375
v 0.125 0.02083333333333337 0.375
v 0.125 0.10416666666666674 0.17500000000000004
v 0.125 0.02083333333333337 0.17500000000000004
v 0.125 0.10416666666666674 -0.02499999999999991
v 0.125 0.02083333333333337 -0.02499999999999991
v 0.125 0.10416666666666674 -0.22499999999999992
v 0.125 0.02083333333333337 -0.22499999999999992
v 0.125 0.10416666666666674 -0.42499999999999993
v 0.125 0.02083333333333337 -0.42499999999999993
v 0.125 0.10416666666666674 -0.625
v 0.125 0.02083333333333337 -0.625
v -0.125 0.10416666666666674 -0.625
v -0.125 0.02083333333333337 -0.625
v -0.125 0.10416666666666674 -0.42499999999999993
v -0.125 0.02083333333333337 -0.42499999999999993
v -0.125 0.14583541666666677 -0.34999999999999987
v -0.125 0.14583541666666677 0.10000000000000009
v -0.125 0.14583541666666677 0.17500000000000004
v -0.125 0.14583541666666677 0.375
v 0.125 0.14583541666666677 0.375
v 0.125 0.14583541666666677 0.17500000000000004
v 0.125 0.14583541666666677 -0.02499999999999991
v 0.125 0.14583541666666677 -0.22499999999999992
v 0.125 0.14583541666666677 -0.42499999999999993
v 0.125 0.14583541666666677 -0.625
v -0.125 0.14583541666666677 -0.625
v -0.125 0.14583541666666677 -0.42499999999999993
v -0.125 -0.020833333333333315 0.10000000000000009
v -0.125 -0.020833333333333315 -0.34999999999999987
v -0.125 -0.020833333333333315 -0.42499999999999993
v -0.125 -0.020833333333333315 -0.625
v 0.125 -0.020833333333333315 -0.625
v 0.125 -0.020833333333333315 -0.42499999999999993
v 0.125 -0.020833333333333315 -0.22499999999999992
v 0.125 -0.020833333333333315 -0.02499999999999991
v 0.125 -0.020833333333333315 0.17500000000000004
v 0.125 -0.020833333333333315 0.375
v -0.125 -0.020833333333333315 0.375
v -0.125 -0.020833333333333315 0.17500000000000004
v 0.0625 -0.3125 0.21875
v 0.0625 -0.0625 0.21875
v 0.0625 -0.3125 0.28125
v -0.0625 -0.3125 0.21875
v -0.0625 -0.3125 0.28125
v -0.0625 -0.0625 0.21875
vt 0.015625 0.953125
vt 0.026041666666666668 0.953125
vt 0.026041666666666668 0.984375
vt 0.015625 0.984375
vt 0.078125 0.984375
vt 0.078125 0.9739583333333334
vt 0.109375 0.9739583333333334
vt 0.109375 0.984375
vt 0.140625 0.984375
vt 0.140625 0.9739583333333334
vt 0.171875 0.9739583333333334
vt 0.171875 0.984375
vt 0.203125 0.953125
vt 0.21354166666666669 0.953125
vt 0.21354166666666669 0.984375
vt 0.203125 0.984375
vt 0.296875 0.984375
vt 0.265625 0.984375
vt 0.265625 0.953125
vt 0.296875 0.953125
vt 0.359375 0.984375
vt 0.328125 0.984375
vt 0.328125 0.953125
vt 0.359375 0.953125
vt 0.415625 0.9635416666666666
vt 0.415625 0.9583333333333334
vt 0.421875 0.9583333333333334
vt 0.421875 0.9635416666666666
vt 0.47395833333333337 0.953125
vt 0.4791666666666667 0.953125
vt 0.4791666666666667 0.984375
vt 0.47395833333333337 0.984375
vt 0.515625 0.9635416666666666
vt 0.515625 0.9583333333333334
vt 0.546875 0.9583333333333334
vt 0.546875 0.9635416666666666
vt 0.609375 0.984375
vt 0.578125 0.984375
vt 0.578125 0.953125
vt 0.609375 0.953125
vt 0.859375 0.984375
vt 0.828125 0.984375
vt 0.828125 0.953125
vt 0.859375 0.953125
vt 0.921875 0.984375
vt 0.890625 0.984375
vt 0.890625 0.953125
vt 0.921875 0.953125
vt 0.984375 0.984375
vt 0.953125 0.984375
vt 0.953125 0.953125
vt 0.984375 0.953125
vt 0.046875 0.921875
vt 0.015625 0.921875
vt 0.015625 0.890625
vt 0.046875 0.890625
vt 0.109375 0.921875
vt 0.078125 0.921875
vt 0.078125 0.890625
vt 0.109375 0.890625
vt 0.171875 0.921875
vt 0.140625 0.921875
vt 0.140625 0.890625
vt 0.171875 0.890625
vt 0.234375 0.921875
vt 0.203125 0.921875
vt 0.203125 0.890625
vt 0.234375 0.890625
vt 0.296875 0.921875
vt 0.265625 0.921875
vt 0.265625 0.890625
vt 0.296875 0.890625
vt 0.359375 0.921875
vt 0.328125 0.921875
vt 0.328125 0.890625
vt 0.359375 0.890625
vt 0.6614583333333333 0.953125
vt 0.6666666666666666 0.953125
vt 0.6666666666666666 0.959375
vt 0.6614583333333333 0.959375
vt 0.734375 0.953125
vt 0.734375 0.959375
vt 0.703125 0.959375
vt 0.703125 0.953125
vt 0.796875 0.984375
vt 0.7906249999999999 0.984375
vt 0.7906249999999999 0.953125
vt 0.796875 0.953125
vt 0.703125 0.984375
vt 0.703125 0.978125
vt 0.734375 0.978125
vt 0.734375 0.984375
vt 0.703125 0.978125
vt 0.703125 0.971875
vt 0.734375 0.971875
vt 0.734375 0.978125
vt 0.703125 0.971875
vt 0.703125 0.965625
vt 0.734375 0.965625
vt 0.734375 0.971875
vt 0.703125 0.965625
vt 0.703125 0.959375
vt 0.734375 0.959375
vt 0.734375 0.965625
vt 0.6614583333333333 0.978125
vt 0.6666666666666666 0.978125
vt 0.6666666666666666 0.984375
vt 0.6614583333333333 0.984375
vt 0.6614583333333333 0.971875
vt 0.6666666666666666 0.971875
vt 0.6666666666666666 0.978125
vt 0.6614583333333333 0.978125
vt 0.6614583333333333 0.965625
vt 0.6666666666666666 0.965625
vt 0.6666666666666666 0.971875
vt 0.6614583333333333 0.971875
vt 0.6614583333333333 0.959375
vt 0.6666666666666666 0.959375
vt 0.6666666666666666 0.965625
vt 0.6614583333333333 0.965625
vt 0.765625 0.953125
vt 0.771875 0.953125
vt 0.771875 0.984375
vt 0.765625 0.984375
vt 0.771875 0.953125
vt 0.778125 0.953125
vt 0.778125 0.984375
vt 0.771875 0.984375
vt 0.778125 0.953125
vt 0.7843749999999999 0.953125
vt 0.7843749999999999 0.984375
vt 0.778125 0.984375
vt 0.7843749999999999 0.953125
vt 0.7906249999999999 0.953125
vt 0.7906249999999999 0.984375
vt 0.7843749999999999 0.984375
vt 0.390625 0.9635416666666666
vt 0.390625 0.9583333333333334
vt 0.396875 0.9583333333333334
vt 0.396875 0.9635416666666666
vt 0.396875 0.9635416666666666
vt 0.396875 0.9583333333333334
vt 0.40312499999999996 0.9583333333333334
vt 0.40312499999999996 0.9635416666666666
vt 0.40312499999999996 0.9635416666666666
vt 0.40312499999999996 0.9583333333333334
vt 0.409375 0.9583333333333334
vt 0.409375 0.9635416666666666
vt 0.409375 0.9635416666666666
vt 0.409375 0.9583333333333334
vt 0.415625 0.9583333333333334
vt 0.415625 0.9635416666666666
vt 0.6510416666666666 0.971875
vt 0.6458330729166667 0.971875
vt 0.6458330729166667 0.965625
vt 0.6510416666666666 0.965625
vt 0.6510416666666666 0.965625
vt 0.6614583333333333 0.965625
vt 0.6614583333333333 0.971875
vt 0.6510416666666666 0.971875
vt 0.6510416666666666 0.978125
vt 0.6458330729166667 0.978125
vt 0.6458330729166667 0.971875
vt 0.6510416666666666 0.971875
vt 0.6510416666666666 0.971875
vt 0.6614583333333333 0.971875
vt 0.6614583333333333 0.978125
vt 0.6510416666666666 0.978125
vt 0.6510416666666666 0.984375
vt 0.6458330729166667 0.984375
vt 0.6458330729166667 0.978125
vt 0.6510416666666666 0.978125
vt 0.6510416666666666 0.978125
vt 0.6614583333333333 0.978125
vt 0.6614583333333333 0.984375
vt 0.6510416666666666 0.984375
vt 0.4635416666666667 0.984375
vt 0.4583330729166667 0.984375
vt 0.4583330729166667 0.953125
vt 0.4635416666666667 0.953125
vt 0.4635416666666667 0.953125
vt 0.47395833333333337 0.953125
vt 0.47395833333333337 0.984375
vt 0.4635416666666667 0.984375
vt 0.396875 0.9739583333333334
vt 0.396875 0.9791669270833333
vt 0.390625 0.9791669270833333
vt 0.390625 0.9739583333333334
vt 0.390625 0.9739583333333334
vt 0.390625 0.9635416666666666
vt 0.396875 0.9635416666666666
vt 0.396875 0.9739583333333334
vt 0.40312499999999996 0.9739583333333334
vt 0.40312499999999996 0.9791669270833333
vt 0.396875 0.9791669270833333
vt 0.396875 0.9739583333333334
vt 0.396875 0.9739583333333334
vt 0.396875 0.9635416666666666
vt 0.40312499999999996 0.9635416666666666
vt 0.40312499999999996 0.9739583333333334
vt 0.409375 0.9739583333333334
vt 0.409375 0.9791669270833333
vt 0.40312499999999996 0.9791669270833333
vt 0.40312499999999996 0.9739583333333334
vt 0.40312499999999996 0.9739583333333334
vt 0.40312499999999996 0.9635416666666666
vt 0.409375 0.9635416666666666
vt 0.409375 0.9739583333333334
vt 0.415625 0.9739583333333334
vt 0.415625 0.9791669270833333
vt 0.409375 0.9791669270833333
vt 0.409375 0.9739583333333334
vt 0.409375 0.9739583333333334
vt 0.409375 0.9635416666666666
vt 0.415625 0.9635416666666666
vt 0.415625 0.9739583333333334
vt 0.421875 0.9739583333333334
vt 0.421875 0.9791669270833333
vt 0.415625 0.9791669270833333
vt 0.415625 0.9739583333333334
vt 0.415625 0.9739583333333334
vt 0.415625 0.9635416666666666
vt 0.421875 0.9635416666666666
vt 0.421875 0.9739583333333334
vt 0.546875 0.9739583333333334
vt 0.546875 0.9791669270833333
vt 0.515625 0.9791669270833333
vt 0.515625 0.9739583333333334
vt 0.515625 0.9739583333333334
vt 0.515625 0.9635416666666666
vt 0.546875 0.9635416666666666
vt 0.546875 0.9739583333333334
vt 0.6510416666666666 0.959375
vt 0.6458330729166667 0.959375
vt 0.6458330729166667 0.953125
vt 0.6510416666666666 0.953125
vt 0.6510416666666666 0.953125
vt 0.6614583333333333 0.953125
vt 0.6614583333333333 0.959375
vt 0.6510416666666666 0.959375
vt 0.6510416666666666 0.965625
vt 0.6458330729166667 0.965625
vt 0.6458330729166667 0.959375
vt 0.6510416666666666 0.959375
vt 0.6510416666666666 0.959375
vt 0.6614583333333333 0.959375
vt 0.6614583333333333 0.965625
vt 0.6510416666666666 0.965625
vt 0.640625 0.965625
vt 0.6458330729166667 0.965625
vt 0.6458330729166667 0.971875
vt 0.640625 0.971875
vt 0.640625 0.971875
vt 0.6458330729166667 0.971875
vt 0.6458330729166667 0.978125
vt 0.640625 0.978125
vt 0.640625 0.978125
vt 0.6458330729166667 0.978125
vt 0.6458330729166667 0.984375
vt 0.640625 0.984375
vt 0.453125 0.953125
vt 0.4583330729166667 0.953125
vt 0.4583330729166667 0.984375
vt 0.453125 0.984375
vt 0.390625 0.984375
vt 0.390625 0.9791669270833333
vt 0.396875 0.9791669270833333
vt 0.396875 0.984375
vt 0.396875 0.984375
vt 0.396875 0.9791669270833333
vt 0.40312499999999996 0.9791669270833333
vt 0.40312499999999996 0.984375
vt 0.40312499999999996 0.984375
vt 0.40312499999999996 0.9791669270833333
vt 0.409375 0.9791669270833333
vt 0.409375 0.984375
vt 0.409375 0.984375
vt 0.409375 0.9791669270833333
vt 0.415625 0.9791669270833333
vt 0.415625 0.984375
vt 0.415625 0.984375
vt 0.415625 0.9791669270833333
vt 0.421875 0.9791669270833333
vt 0.421875 0.984375
vt 0.515625 0.984375
vt 0.515625 0.9791669270833333
vt 0.546875 0.9791669270833333
vt 0.546875 0.984375
vt 0.640625 0.953125
vt 0.6458330729166667 0.953125
vt 0.6458330729166667 0.959375
vt 0.640625 0.959375
vt 0.640625 0.959375
vt 0.6458330729166667 0.959375
vt 0.6458330729166667 0.965625
vt 0.640625 0.965625
vt 0.671875 0.971875
vt 0.6666666666666666 0.971875
vt 0.6666666666666666 0.965625
vt 0.671875 0.965625
vt 0.671875 0.965625
vt 0.6666666666666666 0.965625
vt 0.6666666666666666 0.959375
vt 0.671875 0.959375
vt 0.671875 0.959375
vt 0.6666666666666666 0.959375
vt 0.6666666666666666 0.953125
vt 0.671875 0.953125
vt 0.546875 0.953125
vt 0.546875 0.9583333333333334
vt 0.515625 0.9583333333333334
vt 0.515625 0.953125
vt 0.421875 0.953125
vt 0.421875 0.9583333333333334
vt 0.415625 0.9583333333333334
vt 0.415625 0.953125
vt 0.415625 0.953125
vt 0.415625 0.9583333333333334
vt 0.409375 0.9583333333333334
vt 0.409375 0.953125
vt 0.409375 0.953125
vt 0.409375 0.9583333333333334
vt 0.40312499999999996 0.9583333333333334
vt 0.40312499999999996 0.953125
vt 0.40312499999999996 0.953125
vt 0.40312499999999996 0.9583333333333334
vt 0.396875 0.9583333333333334
vt 0.396875 0.953125
vt 0.396875 0.953125
vt 0.396875 0.9583333333333334
vt 0.390625 0.9583333333333334
vt 0.390625 0.953125
vt 0.484375 0.984375
vt 0.4791666666666667 0.984375
vt 0.4791666666666667 0.953125
vt 0.484375 0.953125
vt 0.671875 0.984375
vt 0.6666666666666666 0.984375
vt 0.6666666666666666 0.978125
vt 0.671875 0.978125
vt 0.671875 0.978125
vt 0.6666666666666666 0.978125
vt 0.6666666666666666 0.971875
vt 0.671875 0.971875
vt 0.046875 0.984375
vt 0.036458333333333336 0.953125
vt 0.046875 0.953125
vt 0.036458333333333336 0.984375
vt 0.026041666666666668 0.984375
vt 0.026041666666666668 0.953125
vt 0.036458333333333336 0.953125
vt 0.234375 0.984375
vt 0.22395833333333334 0.984375
vt 0.22395833333333334 0.953125
vt 0.234375 0.953125
vt 0.22395833333333334 0.984375
vt 0.21354166666666669 0.984375
vt 0.21354166666666669 0.953125
vt 0.22395833333333334 0.953125
vt 0.109375 0.953125
vt 0.109375 0.9635416666666666
vt 0.078125 0.953125
vt 0.109375 0.9635416666666666
vt 0.109375 0.9739583333333334
vt 0.078125 0.9739583333333334
vt 0.078125 0.9635416666666666
vt 0.171875 0.9635416666666666
vt 0.171875 0.9739583333333334
vt 0.140625 0.9739583333333334
vt 0.140625 0.9635416666666666
vn 1 0 0
vn -1 0 0
vn 0 1 0
vn 0 -1 0
vn 0 0.24253562503633297 0.9701425001453319
vn 0 -0.12403473458920847 -0.9922778767136677
vn 1 0 0
vn 0 0 1
vn 0 0 -1
vn 0 0 0
vn 0 0 0
vn 0 0 0
vn 0 1 0
vn 0 -1 0
vn 0 0 0
vn 1 0 0
vn 0 0 1
vn -1 0 0
vn 0 0 -1
vn -1 0 0
vn 0 1 0
vn 0 -1 0
vn 0 1 0
vn 0 1 0
vn 0 1 0
vn 0 1 0
vn -1 0 0
vn -0.5547001962252294 -0.8320502943378437 0
vn -0.5547001962252294 -0.8320502943378437 0
vn -1 0 0
vn 0 -1 0
vn 0 -1 0
vn 0 -1 0
vn 0 -1 0
vn 1 0 0
vn 1 0 0
vn 1 0 0
vn 1 0 0
vn -0.5547193969427683 0.8320374935394748 0
vn -1 0 0
vn -1 0 0
vn -0.7682212795973757 0 0.64018439966448
vn -1 0 0
vn -1 0 0
vn 0 0 1
vn 0 0 1
vn 1 0 0
vn 1 0 0
vn 1 0 0
vn 1 0 0
vn 1 0 0
vn 1 0 0
vn 1 0 0
vn 1 0 0
vn 1 0 0
vn 1 0 0
vn 0 0 -1
vn 0 0 -1
vn -1 0 0
vn -1 0 0
vn -0.5547193969427683 0.8320374935394748 0
vn -0.7682212795973763 0 -0.6401843996644796
vn -1 0 0
vn -1 0 0
vn -1 0 0
vn 0 0 1
vn 1 0 0
vn 1 0 0
vn 1 0 0
vn 1 0 0
vn 1 0 0
vn 0 0 -1
vn -1 0 0
vn -1 0 0
vn -1 0 0
vn -1 0 0
vn -1 0 0
vn 0 0 -1
vn 1 0 0
vn 1 0 0
vn 1 0 0
vn 1 0 0
vn 1 0 0
vn 0 0 1
vn -1 0 0
vn -1 0 0
vn 1 0 0
vn 1 0 0
vn 0 -1 0
vn 0 -1 0
vn -1 0 0
vn -1 0 0
vn 0 1 0
usemtl m_98594610-326e-9c23-4b13-eece8df0d169
f 3/1/1 95/2/1 94/3/1 1/4/1
f 5/5/2 98/6/2 97/7/2 7/8/2
f 1/9/3 94/10/3 98/11/3 5/12/3
f 7/13/4 97/14/4 95/15/4 3/16/4
f 3/17/5 1/18/5 5/19/5 7/20/5
f 6/21/6 2/22/6 4/23/6 8/24/6
f 62/25/7 86/26/7 85/27/7 64/28/7
f 52/29/8 91/30/8 90/31/8 54/32/8
f 64/33/9 85/34/9 84/35/9 66/36/9
f 21/37/10 26/38/10 27/39/10 17/40/10
f 17/41/11 25/42/11 26/43/11 18/44/11
f 22/45/12 27/46/12 28/47/12 21/48/12
f 21/49/13 17/50/13 18/51/13 22/52/13
f 20/53/14 19/54/14 23/55/14 24/56/14
f 18/57/15 28/58/15 25/59/15 22/60/15
f 20/61/16 25/62/16 26/63/16 19/64/16
f 19/65/17 26/66/17 27/67/17 23/68/17
f 23/69/18 27/70/18 28/71/18 24/72/18
f 24/73/19 28/74/19 25/75/19 20/76/19
f 66/77/20 84/78/20 83/79/20 68/80/20
f 14/81/21 36/82/21 35/83/21 10/84/21
f 12/85/22 44/86/22 40/87/22 16/88/22
f 9/89/23 29/90/23 30/91/23 13/92/23
f 29/93/24 31/94/24 32/95/24 30/96/24
f 31/97/25 33/98/25 34/99/25 32/100/25
f 33/101/26 35/102/26 36/103/26 34/104/26
f 50/105/27 92/106/27 91/107/27 52/108/27
f 48/109/28 81/110/28 92/111/28 50/112/28
f 47/113/29 82/114/29 81/115/29 48/116/29
f 68/117/30 83/118/30 82/119/30 47/120/30
f 15/121/31 37/122/31 41/123/31 11/124/31
f 37/125/32 38/126/32 42/127/32 41/128/32
f 38/129/33 39/130/33 43/131/33 42/132/33
f 39/133/34 40/134/34 44/135/34 43/136/34
f 54/137/35 90/138/35 89/139/35 56/140/35
f 56/141/36 89/142/36 88/143/36 58/144/36
f 58/145/37 88/146/37 87/147/37 60/148/37
f 60/149/38 87/150/38 86/151/38 62/152/38
f 46/153/39 70/154/39 69/155/39 45/156/39
f 45/157/40 47/158/40 48/159/40 46/160/40
f 49/161/41 71/162/41 70/163/41 46/164/41
f 46/165/42 48/166/42 50/167/42 49/168/42
f 51/169/43 72/170/43 71/171/43 49/172/43
f 49/173/44 50/174/44 52/175/44 51/176/44
f 53/177/45 73/178/45 72/179/45 51/180/45
f 51/181/46 52/182/46 54/183/46 53/184/46
f 55/185/47 74/186/47 73/187/47 53/188/47
f 53/189/48 54/190/48 56/191/48 55/192/48
f 57/193/49 75/194/49 74/195/49 55/196/49
f 55/197/50 56/198/50 58/199/50 57/200/50
f 59/201/51 76/202/51 75/203/51 57/204/51
f 57/205/52 58/206/52 60/207/52 59/208/52
f 61/209/53 77/210/53 76/211/53 59/212/53
f 59/213/54 60/214/54 62/215/54 61/216/54
f 63/217/55 78/218/55 77/219/55 61/220/55
f 61/221/56 62/222/56 64/223/56 63/224/56
f 65/225/57 79/226/57 78/227/57 63/228/57
f 63/229/58 64/230/58 66/231/58 65/232/58
f 67/233/59 80/234/59 79/235/59 65/236/59
f 65/237/60 66/238/60 68/239/60 67/240/60
f 45/241/61 69/242/61 80/243/61 67/244/61
f 67/245/62 68/246/62 47/247/62 45/248/62
f 34/249/63 69/250/63 70/251/63 32/252/63
f 32/253/64 70/254/64 71/255/64 30/256/64
f 30/257/65 71/258/65 72/259/65 13/260/65
f 13/261/66 72/262/66 73/263/66 9/264/66
f 9/265/67 73/266/67 74/267/67 29/268/67
f 29/269/68 74/270/68 75/271/68 31/272/68
f 31/273/69 75/274/69 76/275/69 33/276/69
f 33/277/70 76/278/70 77/279/70 35/280/70
f 35/281/71 77/282/71 78/283/71 10/284/71
f 10/285/72 78/286/72 79/287/72 14/288/72
f 14/289/73 79/290/73 80/291/73 36/292/73
f 36/293/74 80/294/74 69/295/74 34/296/74
f 38/297/75 81/298/75 82/299/75 39/300/75
f 39/301/76 82/302/76 83/303/76 40/304/76
f 40/305/77 83/306/77 84/307/77 16/308/77
f 16/309/78 84/310/78 85/311/78 12/312/78
f 12/313/79 85/314/79 86/315/79 44/316/79
f 44/317/80 86/318/80 87/319/80 43/320/80
f 43/321/81 87/322/81 88/323/81 42/324/81
f 42/325/82 88/326/82 89/327/82 41/328/82
f 41/329/83 89/330/83 90/331/83 11/332/83
f 11/333/84 90/334/84 91/335/84 15/336/84
f 15/337/85 91/338/85 92/339/85 37/340/85
f 37/341/86 92/342/86 81/343/86 38/344/86
f 2/345/87 93/346/87 4/347/87
f 2/348/88 94/349/88 95/350/88 93/351/88
f 4/352/89 93/353/89 96/354/89 8/355/89
f 93/356/90 95/357/90 97/358/90 96/359/90
f 8/360/91 96/361/91 6/362/91
f 96/363/92 97/364/92 98/365/92 6/366/92
f 6/367/93 98/368/93 94/369/93 2/370/93